<?xml version="1.0" standalone="no"?>
<!DOCTYPE svg PUBLIC "-//W3C//DTD SVG 20010904//EN"
 "http://www.w3.org/TR/2001/REC-SVG-20010904/DTD/svg10.dtd">
<svg version="1.0" xmlns="http://www.w3.org/2000/svg"
 width="810.000000pt" height="810.000000pt" viewBox="0 0 810.000000 810.000000"
 preserveAspectRatio="xMidYMid meet">
<metadata>
Created by potrace 1.11, written by Peter Selinger 2001-2013
</metadata>
<g transform="translate(0.000000,810.000000) scale(0.100000,-0.100000)"
fill="#000000" stroke="none">
<path d="M3819 8096 c-2 -2 -45 -6 -96 -10 -86 -6 -287 -30 -343 -41 -14 -3
-41 -8 -60 -11 -19 -4 -44 -9 -55 -11 -11 -2 -31 -6 -45 -9 -14 -3 -41 -9 -60
-14 -19 -5 -46 -11 -60 -13 -14 -3 -52 -13 -85 -23 -33 -10 -62 -19 -65 -19
-319 -77 -806 -302 -1129 -523 -96 -65 -298 -215 -336 -249 -11 -10 -43 -38
-70 -62 -209 -186 -390 -381 -540 -581 -47 -63 -93 -124 -101 -135 -29 -38
-161 -250 -203 -325 -37 -67 -133 -260 -181 -365 -35 -75 -106 -263 -115 -300
-1 -5 -5 -19 -9 -30 -18 -46 -27 -75 -54 -175 -29 -101 -50 -183 -58 -225 -2
-11 -7 -33 -11 -50 -3 -16 -7 -37 -8 -45 -1 -8 -9 -53 -18 -100 -9 -47 -19
-107 -22 -135 -3 -27 -7 -70 -10 -95 -16 -146 -20 -245 -20 -510 0 -258 5
-382 20 -495 2 -16 7 -57 10 -90 4 -33 11 -82 16 -110 5 -27 12 -66 15 -85 3
-19 13 -64 21 -100 8 -36 17 -74 19 -85 8 -43 14 -64 49 -185 111 -389 278
-757 485 -1069 41 -63 80 -123 86 -133 6 -11 20 -29 30 -41 11 -12 37 -47 59
-77 172 -237 484 -553 719 -728 39 -29 80 -60 91 -69 38 -32 310 -210 380
-248 93 -51 298 -154 363 -183 80 -35 121 -52 127 -52 3 0 18 -6 33 -14 33
-17 275 -99 357 -121 135 -37 143 -39 190 -49 11 -2 49 -11 85 -19 36 -8 81
-18 100 -21 19 -3 59 -10 89 -16 30 -5 84 -13 120 -16 36 -3 72 -7 79 -10 57
-18 592 -26 764 -12 105 9 269 27 300 33 13 3 37 7 53 10 44 7 87 15 110 20
155 34 255 57 275 64 14 5 52 17 85 26 358 103 728 273 1050 483 86 57 165
111 200 140 6 4 40 30 76 57 224 170 520 466 689 690 25 33 47 62 50 65 6 6
42 58 83 118 17 26 35 52 39 57 16 20 58 86 58 91 0 3 11 20 23 37 46 62 171
300 242 461 65 147 93 219 141 366 18 58 39 120 45 138 5 18 13 44 15 59 3 15
14 58 24 97 18 64 41 168 55 243 3 16 7 37 9 48 11 60 30 213 43 350 16 170 7
790 -12 890 -2 11 -7 47 -10 80 -8 80 -41 258 -74 400 -108 461 -296 894 -563
1294 -76 114 -248 345 -269 361 -3 3 -25 28 -49 55 -83 97 -270 285 -380 380
-180 158 -454 350 -650 457 -190 104 -265 140 -440 215 -115 49 -237 93 -259
93 -11 0 -22 4 -25 9 -3 5 -27 14 -53 21 -27 7 -52 14 -58 16 -5 2 -19 5 -30
8 -11 3 -36 10 -55 16 -65 20 -284 68 -385 85 -134 22 -139 23 -220 31 -38 3
-81 8 -95 11 -35 5 -585 14 -591 9z"/>
</g>
</svg>
